<?xml version="1.0" standalone="no"?><!DOCTYPE svg PUBLIC "-//W3C//DTD SVG 1.1//EN" "http://www.w3.org/Graphics/SVG/1.1/DTD/svg11.dtd"><svg t="1579502375393" class="icon" viewBox="0 0 1024 1024" version="1.1" xmlns="http://www.w3.org/2000/svg" p-id="16866" xmlns:xlink="http://www.w3.org/1999/xlink" width="128" height="128"><defs><style type="text/css"></style></defs><path d="M1002.666667 256h-267.008L581.12 111.445333c4.138667-9.344 6.485333-19.584 6.485333-30.421333 0-41.685333-33.92-75.605333-75.605333-75.605333s-75.605333 33.92-75.605333 75.605333c0 12.8 3.498667 24.661333 9.088 35.2L288.384 256H21.333333a21.333333 21.333333 0 0 0-21.333333 21.333333v725.333334a21.333333 21.333333 0 0 0 21.333333 21.333333h981.333334a21.333333 21.333333 0 0 0 21.333333-21.333333v-725.333334a21.333333 21.333333 0 0 0-21.333333-21.333333zM512 48.085333a32.938667 32.938667 0 1 1 0 65.92 32.938667 32.938667 0 0 1 0-65.92z m-36.650667 98.688c10.922667 6.101333 23.296 9.856 36.650667 9.856 15.36 0 29.610667-4.650667 41.557333-12.544L673.194667 256H352.554667l122.794666-109.226667zM981.333333 298.666667v85.333333H42.666667V298.666667h938.666666zM42.666667 981.333333V426.666667h938.666666v554.666666H42.666667z" p-id="16867"></path><path d="M234.325333 851.2h-39.893333a21.333333 21.333333 0 0 0 0 42.666667h39.893333a21.333333 21.333333 0 0 0 0-42.666667zM364.117333 851.2h-39.893333a21.333333 21.333333 0 0 0 0 42.666667h39.893333a21.333333 21.333333 0 0 0 0-42.666667zM489.344 851.2h-39.893333a21.333333 21.333333 0 0 0 0 42.666667h39.893333a21.333333 21.333333 0 0 0 0-42.666667zM617.386667 851.2h-39.893334a21.333333 21.333333 0 0 0 0 42.666667h39.893334a21.333333 21.333333 0 0 0 0-42.666667zM234.325333 765.866667h-39.893333a21.333333 21.333333 0 0 0 0 42.666666h39.893333a21.333333 21.333333 0 0 0 0-42.666666zM364.117333 765.866667h-39.893333a21.333333 21.333333 0 0 0 0 42.666666h39.893333a21.333333 21.333333 0 0 0 0-42.666666zM489.344 765.866667h-39.893333a21.333333 21.333333 0 0 0 0 42.666666h39.893333a21.333333 21.333333 0 0 0 0-42.666666zM617.386667 765.866667h-39.893334a21.333333 21.333333 0 0 0 0 42.666666h39.893334a21.333333 21.333333 0 0 0 0-42.666666zM745.386667 765.866667h-39.893334a21.333333 21.333333 0 0 0 0 42.666666h39.893334a21.333333 21.333333 0 0 0 0-42.666666zM873.429333 765.866667h-39.936a21.333333 21.333333 0 0 0 0 42.666666h39.936a21.333333 21.333333 0 0 0 0-42.666666zM234.325333 680.533333h-39.893333a21.333333 21.333333 0 0 0 0 42.666667h39.893333a21.333333 21.333333 0 0 0 0-42.666667zM364.117333 680.533333h-39.893333a21.333333 21.333333 0 0 0 0 42.666667h39.893333a21.333333 21.333333 0 0 0 0-42.666667zM489.344 680.533333h-39.893333a21.333333 21.333333 0 0 0 0 42.666667h39.893333a21.333333 21.333333 0 0 0 0-42.666667zM617.386667 680.533333h-39.893334a21.333333 21.333333 0 0 0 0 42.666667h39.893334a21.333333 21.333333 0 0 0 0-42.666667zM745.386667 680.533333h-39.893334a21.333333 21.333333 0 0 0 0 42.666667h39.893334a21.333333 21.333333 0 0 0 0-42.666667zM873.429333 680.533333h-39.936a21.333333 21.333333 0 0 0 0 42.666667h39.936a21.333333 21.333333 0 0 0 0-42.666667zM234.325333 595.157333h-39.893333a21.333333 21.333333 0 0 0 0 42.666667h39.893333a21.333333 21.333333 0 0 0 0-42.666667zM364.117333 595.157333h-39.893333a21.333333 21.333333 0 0 0 0 42.666667h39.893333a21.333333 21.333333 0 0 0 0-42.666667zM489.344 595.157333h-39.893333a21.333333 21.333333 0 0 0 0 42.666667h39.893333a21.333333 21.333333 0 0 0 0-42.666667zM617.386667 595.157333h-39.893334a21.333333 21.333333 0 0 0 0 42.666667h39.893334a21.333333 21.333333 0 0 0 0-42.666667zM745.386667 595.157333h-39.893334a21.333333 21.333333 0 0 0 0 42.666667h39.893334a21.333333 21.333333 0 0 0 0-42.666667zM873.429333 595.157333h-39.936a21.333333 21.333333 0 0 0 0 42.666667h39.936a21.333333 21.333333 0 0 0 0-42.666667zM617.386667 509.824h-39.893334a21.333333 21.333333 0 0 0 0 42.666667h39.893334a21.333333 21.333333 0 0 0 0-42.666667zM745.386667 509.824h-39.893334a21.333333 21.333333 0 0 0 0 42.666667h39.893334a21.333333 21.333333 0 0 0 0-42.666667zM873.429333 509.824h-39.936a21.333333 21.333333 0 0 0 0 42.666667h39.936a21.333333 21.333333 0 0 0 0-42.666667z" p-id="16868"></path></svg>