<?xml version="1.0" standalone="no"?><!DOCTYPE svg PUBLIC "-//W3C//DTD SVG 1.1//EN" "http://www.w3.org/Graphics/SVG/1.1/DTD/svg11.dtd"><svg t="1579501022156" class="icon" viewBox="0 0 1024 1024" version="1.1" xmlns="http://www.w3.org/2000/svg" p-id="3172" xmlns:xlink="http://www.w3.org/1999/xlink" width="128" height="128"><defs><style type="text/css"></style></defs><path d="M812.5 393.6h-601c-14.6 0-26.5-12.2-26.5-27.3 0-15.1 11.9-27.3 26.5-27.3h601c14.7 0 26.5 12.2 26.5 27.3 0 15.1-11.8 27.3-26.5 27.3z" p-id="3173"></path><path d="M370.6 867.1c-14.6 0-26.5-12.2-26.5-27.3V366.3c0-15.1 11.9-27.3 26.5-27.3s26.5 12.2 26.5 27.3v473.5c0 15.1-11.9 27.3-26.5 27.3z" p-id="3174"></path><path d="M794.8 867.1H229.2c-34.1 0-61.9-28.6-61.9-63.7V220.6c0-35.1 27.8-63.7 61.9-63.7h565.7c34.1 0 61.9 28.6 61.9 63.7v582.8c-0.1 35.1-27.9 63.7-62 63.7zM229.2 211.5c-4.9 0-8.8 4.1-8.8 9.1v582.8c0 5 4 9.1 8.8 9.1h565.7c4.9 0 8.8-4.1 8.8-9.1V220.6c0-5-4-9.1-8.8-9.1H229.2z" p-id="3175"></path></svg>