<?xml version="1.0" standalone="no"?><!DOCTYPE svg PUBLIC "-//W3C//DTD SVG 1.1//EN" "http://www.w3.org/Graphics/SVG/1.1/DTD/svg11.dtd"><svg t="1579502853708" class="icon" viewBox="0 0 1024 1024" version="1.1" xmlns="http://www.w3.org/2000/svg" p-id="22201" xmlns:xlink="http://www.w3.org/1999/xlink" width="128" height="128"><defs><style type="text/css"></style></defs><path d="M854.4 662.4c0-6.4 0-9.6-3.2-16v-9.6c-6.4-25.6-19.2-51.2-19.2-51.2L553.6 32c-41.6-70.4-76.8 0-76.8 0L201.6 598.4c-12.8 28.8-12.8 54.4-12.8 54.4-3.2 16-3.2 28.8-3.2 44.8 0 179.2 150.4 326.4 336 326.4s336-147.2 336-326.4c-3.2-12.8-3.2-22.4-3.2-35.2m-332.8 9.6c-99.2-86.4-195.2-80-262.4-54.4l262.4-531.2 252.8 518.4c22.4 48 22.4 80 22.4 92.8-67.2 44.8-166.4 70.4-275.2-25.6m0 0z" fill="#666666" p-id="22202"></path></svg>