<?xml version="1.0" standalone="no"?><!DOCTYPE svg PUBLIC "-//W3C//DTD SVG 1.1//EN" "http://www.w3.org/Graphics/SVG/1.1/DTD/svg11.dtd"><svg t="1585727597483" class="icon" viewBox="0 0 1024 1024" version="1.1" xmlns="http://www.w3.org/2000/svg" p-id="5054" xmlns:xlink="http://www.w3.org/1999/xlink" width="128" height="128"><defs><style type="text/css"></style></defs><path d="M452.257 92.639c-40.259 28.186-70.437 68.93-85.672 114.832-15.213 45.839-14.577 93.833 2.362 136.488 6.275 15.803 14.718 30.787 25.336 44.792 13.861-49.395 50.788-90.966 102.645-113.822 11.822-5.197 26.928-23.583 35.167-46.373 8.52-23.57 7.705-45.211-0.95-58.4-22.51-34.276-31.684-70.544-27.92-104.269a225.91 225.91 0 0 0-50.968 26.752zM609.97 0.739c-61.295 30.854-70.194 88.414-35.177 141.733 39.178 59.697-3.617 155.747-56.654 179.06-80.34 35.41-101.37 125.175-49.452 180.725l3.297 4.304-14.468-2.827C174.566 361.874 315.465-18.993 609.97 0.739z" fill="#000000" p-id="5055"></path><path d="M62.435 413.841c14.943 46.165 45.22 86.86 85.154 115.246 39.933 28.386 86.899 42.65 133.71 40.03 17.15-0.959 34.17-4.145 50.912-9.613-43.458-28.172-72.304-75.3-78.47-130.518-1.396-12.524-14.6-32.273-34.218-47-20.367-15.292-41.8-21.263-57.47-17.224-40.24 10.354-78.28 7.67-109.837-6.305 0.961 18.867 4.399 37.403 10.22 55.384zM22.08 238.836c11.011 66.61 64.176 92.656 126.816 76.538 70.097-18.067 150.181 51.496 156.487 108.051 9.57 85.713 90.295 133.03 160.328 101.894l5.665-2.074-7.585 12.82C238.55 755.937-88.124 506.97 22.08 238.834z" fill="#000000" p-id="5056"></path><path d="M254.368 876.026c49.569 0.354 98.533-15.28 138.483-43.704 39.887-28.379 68.214-67.626 80.113-111.908 4.378-16.294 6.538-33.163 6.38-50.484-40.82 32.01-95.627 44.413-151.278 33.062-12.755-2.605-36.118 3.609-56.533 17.352-21.092 14.2-33.443 32.21-34.35 47.895-2.38 40.593-16.657 75.123-39.82 100.198 18.64 4.927 37.723 7.451 57.005 7.589z m-182.612-16.31c68.113 10.338 109.851-31.105 113.564-94.415 4.097-70.85 96.408-123.918 153.318-112.293 86.262 17.595 157.191-42.95 148.55-117.76l-1.313-8.358 11.203 13.447c143.94 277.655-198.866 504.786-425.322 319.38zM923.09 390.632c-11.121-12.746-23.65-24.144-37.44-34.107-39.857-28.792-88.843-44.32-138.244-44.318-49.362 0.002-95.92 15.468-132.207 44.482-13.282 10.62-25.125 22.963-35.378 36.989 52.085-2.293 103.729 19.208 141.87 60.352 8.706 9.394 31.33 17.804 56.12 18.434 25.686 0.652 46.622-6.85 56.833-19.066 26.275-31.475 58.58-51.188 92.412-58.092l-3.966-4.674zM874.788 485.8c-45.899 54.921-152.454 44.741-191.503 2.608-59.215-63.876-152.934-55.676-190.864 9.803l-4.897 5.812v-15.772c50.412-307.283 463.988-293.804 535.846-13.51-48.94-47.538-107.611-38.018-148.582 11.059z" fill="#000000" p-id="5057"></path><path d="M737.483 892.847c8.937-14.362 16.174-29.676 21.67-45.777 15.88-46.533 16.408-97.918 1.963-145.16-14.434-47.204-42.837-87.207-81.192-113.425-14.04-9.596-29.306-17.313-45.716-23.018 17.421 49.14 11.958 104.813-16.237 153.317-6.437 11.072-7.865 35.166-1.22 59.056 6.886 24.755 20.181 42.584 34.85 48.776 37.781 15.925 66.078 41.055 82.571 71.39l3.31-5.159zM632.35 874.48c-65.94-27.836-87.36-132.711-58.484-182.373 43.772-75.303 8.53-162.53-65.177-179.658l-6.99-2.984 15.082-4.611c308.596-41.631 416.623 357.813 169.587 508.481 31.151-60.7 4.894-114.024-54.018-138.855z" fill="#000000" p-id="5058"></path></svg>