<?xml version="1.0" standalone="no"?><!DOCTYPE svg PUBLIC "-//W3C//DTD SVG 1.1//EN" "http://www.w3.org/Graphics/SVG/1.1/DTD/svg11.dtd"><svg t="1579502182880" class="icon" viewBox="0 0 1024 1024" version="1.1" xmlns="http://www.w3.org/2000/svg" p-id="15619" xmlns:xlink="http://www.w3.org/1999/xlink" width="128" height="128"><defs><style type="text/css"></style></defs><path d="M959.845825 0h-255.958887a63.989722 63.989722 0 0 0-63.989721 63.989722v533.674278a223.964026 223.964026 0 1 0 127.979443 202.207521V377.539358A339.785422 339.785422 0 0 0 1023.835546 63.989722a63.989722 63.989722 0 0 0-63.989721-63.989722zM542.63284 895.856103A95.984582 95.984582 0 1 1 639.897217 799.871521 95.984582 95.984582 0 0 1 542.63284 895.856103zM767.87666 245.080634V127.979443h118.380985A191.969165 191.969165 0 0 1 767.87666 245.080634zM63.989722 191.969165h383.93833a63.989722 63.989722 0 0 0 0-127.979443H63.989722a63.989722 63.989722 0 0 0 0 127.979443z" fill="#383B48" p-id="15620"></path><path d="M63.989722 383.93833h383.93833a63.989722 63.989722 0 0 0 0-127.979443H63.989722a63.989722 63.989722 0 0 0 0 127.979443zM255.958887 447.928052H63.989722a63.989722 63.989722 0 0 0 0 127.979443h191.969165a63.989722 63.989722 0 0 0 0-127.979443z" fill="#383B48" p-id="15621"></path></svg>