<?xml version="1.0" standalone="no"?><!DOCTYPE svg PUBLIC "-//W3C//DTD SVG 1.1//EN" "http://www.w3.org/Graphics/SVG/1.1/DTD/svg11.dtd"><svg t="1579502979681" class="icon" viewBox="0 0 1024 1024" version="1.1" xmlns="http://www.w3.org/2000/svg" p-id="28844" xmlns:xlink="http://www.w3.org/1999/xlink" width="128" height="128"><defs><style type="text/css"></style></defs><path d="M512 0C229.248 0 0 229.248 0 512s229.248 512 512 512 512-229.248 512-512S794.752 0 512 0zM512 896c-212.096 0-384-171.904-384-384s171.904-384 384-384c212.096 0 384 171.904 384 384S724.096 896 512 896zM384 512l-64 128 128 0L434.688 613.44C456.256 629.824 482.816 640 512 640c70.72 0 128-57.28 128-128 0-29.184-10.176-55.744-26.56-77.312L640 448 640 320 512 384C441.28 384 384 441.28 384 512zM576 512c0 35.328-28.672 64-64 64C476.672 576 448 547.328 448 512s28.672-64 64-64C547.328 448 576 476.672 576 512z" p-id="28845"></path></svg>