<?xml version="1.0" standalone="no"?><!DOCTYPE svg PUBLIC "-//W3C//DTD SVG 1.1//EN" "http://www.w3.org/Graphics/SVG/1.1/DTD/svg11.dtd"><svg t="1579503047308" class="icon" viewBox="0 0 1024 1024" version="1.1" xmlns="http://www.w3.org/2000/svg" p-id="31151" xmlns:xlink="http://www.w3.org/1999/xlink" width="128" height="128"><defs><style type="text/css"></style></defs><path d="M669.538462 118.153846h78.76923v630.153846H669.538462z" fill="#BFBFBF" p-id="31152"></path><path d="M827.076923 937.353846H196.923077c-60.652308 0-110.276923-49.624615-110.276923-110.276923V118.153846c0-17.329231 14.178462-31.507692 31.507692-31.507692h708.923077c60.652308 0 110.276923 49.624615 110.276923 110.276923v630.153846c0 60.652308-49.624615 110.276923-110.276923 110.276923zM149.661538 149.661538v677.415385c0 25.993846 21.267692 47.261538 47.261539 47.261539h630.153846c25.993846 0 47.261538-21.267692 47.261539-47.261539V196.923077c0-25.993846-21.267692-47.261538-47.261539-47.261539H149.661538z" fill="#7F7F7F" p-id="31153"></path><path d="M422.203077 590.769231H275.692308V275.692308h157.538461v304.04923c0 6.301538-4.726154 11.027692-11.027692 11.027693z" fill="#BFBFBF" p-id="31154"></path><path d="M422.203077 622.276923H275.692308c-17.329231 0-31.507692-14.178462-31.507693-31.507692V275.692308c0-17.329231 14.178462-31.507692 31.507693-31.507693h157.538461c17.329231 0 31.507692 14.178462 31.507693 31.507693v304.04923c0 23.630769-18.904615 42.535385-42.535385 42.535385zM307.2 559.261538h94.523077V307.2H307.2v252.061538z" fill="#7F7F7F" p-id="31155"></path><path d="M827.076923 905.846154H196.923077c-43.323077 0-78.769231-35.446154-78.769231-78.769231V748.307692h708.923077c43.323077 0 78.769231 35.446154 78.769231 78.769231s-35.446154 78.769231-78.769231 78.769231z" fill="#BFBFBF" p-id="31156"></path><path d="M827.076923 937.353846H196.923077c-60.652308 0-110.276923-49.624615-110.276923-110.276923V748.307692c0-17.329231 14.178462-31.507692 31.507692-31.507692h708.923077c60.652308 0 110.276923 49.624615 110.276923 110.276923s-49.624615 110.276923-110.276923 110.276923zM149.661538 779.815385v47.261538c0 25.993846 21.267692 47.261538 47.261539 47.261539h630.153846c25.993846 0 47.261538-21.267692 47.261539-47.261539s-21.267692-47.261538-47.261539-47.261538H149.661538z" fill="#7F7F7F" p-id="31157"></path><path d="M905.846154 858.584615c-17.329231 0-31.507692-14.178462-31.507692-31.507692 0-25.993846-21.267692-47.261538-47.261539-47.261538H748.307692c-17.329231 0-31.507692-14.178462-31.507692-31.507693V118.153846c0-17.329231 14.178462-31.507692 31.507692-31.507692h78.769231c60.652308 0 110.276923 49.624615 110.276923 110.276923v630.153846c0 17.329231-14.178462 31.507692-31.507692 31.507692zM779.815385 716.8h47.261538c16.541538 0 33.083077 3.938462 47.261539 11.027692V196.923077c0-25.993846-21.267692-47.261538-47.261539-47.261539h-47.261538v567.138462z" fill="#7F7F7F" p-id="31158"></path></svg>